<svg width="62.16" height="34.705" viewBox="0 0 62.16 34.705" xmlns="http://www.w3.org/2000/svg"><g id="svgGroup" stroke-linecap="round" fill-rule="nonzero" font-size="9pt" stroke="#00000000" stroke-width="0.25mm" fill="#A7B28A" style="stroke:#00000000;stroke-width:0.25mm;fill:#A7B28A"><path d="M 62.16 34.368 L 50.784 34.368 L 40.176 19.536 L 40.176 34.368 L 30.768 34.368 L 30.768 0.528 L 40.176 0.528 L 40.176 15.12 L 50.688 0.528 L 61.536 0.528 L 49.104 16.944 L 62.16 34.368 Z M 0 23.856 L 10.032 23.856 A 6.023 6.023 0 0 0 10.185 24.826 Q 10.315 25.348 10.54 25.753 A 2.647 2.647 0 0 0 11.088 26.448 A 3.148 3.148 0 0 0 12.672 27.2 A 4.388 4.388 0 0 0 13.44 27.264 Q 14.736 27.264 15.576 26.616 A 2.094 2.094 0 0 0 16.404 25.079 A 2.932 2.932 0 0 0 16.416 24.816 A 2.448 2.448 0 0 0 15.532 22.872 A 3.474 3.474 0 0 0 15.024 22.512 Q 13.632 21.696 10.512 20.688 A 60.498 60.498 0 0 1 8.385 19.938 Q 7.442 19.584 6.636 19.237 A 26.106 26.106 0 0 1 5.16 18.552 A 10.018 10.018 0 0 1 2.118 16.156 A 11.979 11.979 0 0 1 1.608 15.528 Q 0.096 13.536 0.096 10.32 A 10.902 10.902 0 0 1 0.449 7.488 A 8.685 8.685 0 0 1 1.728 4.728 A 9.841 9.841 0 0 1 5.37 1.603 A 12.151 12.151 0 0 1 6.24 1.2 A 15.416 15.416 0 0 1 10.14 0.169 A 19.793 19.793 0 0 1 12.768 0 A 20.529 20.529 0 0 1 16.626 0.342 Q 19.912 0.971 22.2 2.76 A 9.605 9.605 0 0 1 25.835 9.153 A 13.534 13.534 0 0 1 25.968 10.512 L 15.744 10.512 A 4.365 4.365 0 0 0 15.627 9.607 Q 15.489 9.046 15.192 8.629 A 2.398 2.398 0 0 0 14.808 8.208 A 3.097 3.097 0 0 0 13.31 7.508 A 4.33 4.33 0 0 0 12.528 7.44 A 2.922 2.922 0 0 0 11.733 7.543 A 2.246 2.246 0 0 0 10.8 8.064 A 2.023 2.023 0 0 0 10.215 9.081 Q 10.133 9.405 10.128 9.789 A 3.892 3.892 0 0 0 10.128 9.84 A 2.174 2.174 0 0 0 10.804 11.431 A 2.889 2.889 0 0 0 10.872 11.496 A 6.114 6.114 0 0 0 11.853 12.237 A 8.008 8.008 0 0 0 12.72 12.696 Q 13.565 13.082 15.03 13.623 A 84.289 84.289 0 0 0 15.984 13.968 Q 19.2 15.072 21.288 16.152 Q 23.376 17.232 24.888 19.176 A 7.02 7.02 0 0 1 26.217 22.152 A 9.868 9.868 0 0 1 26.4 24.096 A 10.342 10.342 0 0 1 25.749 27.797 A 9.652 9.652 0 0 1 24.888 29.52 A 9.965 9.965 0 0 1 21.705 32.655 A 12.523 12.523 0 0 1 20.52 33.312 A 13.356 13.356 0 0 1 16.98 34.438 A 18.362 18.362 0 0 1 13.776 34.704 A 20.353 20.353 0 0 1 9.525 34.284 Q 6.698 33.681 4.523 32.21 A 12.69 12.69 0 0 1 4.08 31.896 A 9.85 9.85 0 0 1 0.128 25.136 A 13.984 13.984 0 0 1 0 23.856 Z" vector-effect="non-scaling-stroke"/></g></svg>